<svg viewBox="0 0 410 410" xmlns="http://www.w3.org/2000/svg" role="img">
<defs>
  <radialGradient id="bg" cx="50%" cy="40%" r="70%">
    <stop offset="0%" style="stop-color:#222226"/>
    <stop offset="100%" style="stop-color:#141416"/>
  </radialGradient>
  <radialGradient id="ringGrad" cx="38%" cy="30%" r="68%">
    <stop offset="0%" style="stop-color:#4A3570"/>
    <stop offset="50%" style="stop-color:#2D1F50"/>
    <stop offset="100%" style="stop-color:#180E35"/>
  </radialGradient>
  <radialGradient id="faceGrad" cx="40%" cy="32%" r="65%">
    <stop offset="0%" style="stop-color:#1A1428"/>
    <stop offset="100%" style="stop-color:#0C0818"/>
  </radialGradient>
  <linearGradient id="nL" x1="0%" y1="0%" x2="100%" y2="100%">
    <stop offset="0%" style="stop-color:#F8F4FF"/>
    <stop offset="30%" style="stop-color:#DDD6FE"/>
    <stop offset="70%" style="stop-color:#9F7AEA"/>
    <stop offset="100%" style="stop-color:#6D28D9"/>
  </linearGradient>
  <linearGradient id="nR" x1="100%" y1="0%" x2="0%" y2="100%">
    <stop offset="0%" style="stop-color:#4C1D95"/>
    <stop offset="60%" style="stop-color:#2E1065"/>
    <stop offset="100%" style="stop-color:#1E0A4E"/>
  </linearGradient>
  <linearGradient id="sL" x1="0%" y1="100%" x2="100%" y2="0%">
    <stop offset="0%" style="stop-color:#7C3AED"/>
    <stop offset="100%" style="stop-color:#3B0764"/>
  </linearGradient>
  <linearGradient id="sR" x1="100%" y1="100%" x2="0%" y2="0%">
    <stop offset="0%" style="stop-color:#2E1065"/>
    <stop offset="100%" style="stop-color:#0D0520"/>
  </linearGradient>
  <linearGradient id="eL" x1="100%" y1="0%" x2="0%" y2="0%">
    <stop offset="0%" style="stop-color:#F0EAFF"/>
    <stop offset="35%" style="stop-color:#C4B5FD"/>
    <stop offset="100%" style="stop-color:#6D28D9"/>
  </linearGradient>
  <linearGradient id="eR" x1="100%" y1="100%" x2="0%" y2="0%">
    <stop offset="0%" style="stop-color:#3B0764"/>
    <stop offset="100%" style="stop-color:#1E0A4E"/>
  </linearGradient>
  <linearGradient id="wL" x1="0%" y1="0%" x2="100%" y2="0%">
    <stop offset="0%" style="stop-color:#8B5CF6"/>
    <stop offset="100%" style="stop-color:#4C1D95"/>
  </linearGradient>
  <linearGradient id="wR" x1="0%" y1="100%" x2="100%" y2="0%">
    <stop offset="0%" style="stop-color:#2E1065"/>
    <stop offset="100%" style="stop-color:#0D0520"/>
  </linearGradient>
  <linearGradient id="diagL" x1="0%" y1="0%" x2="100%" y2="100%">
    <stop offset="0%" style="stop-color:#C4B5FD"/>
    <stop offset="100%" style="stop-color:#5B21B6"/>
  </linearGradient>
  <linearGradient id="diagR" x1="100%" y1="0%" x2="0%" y2="100%">
    <stop offset="0%" style="stop-color:#3B0764"/>
    <stop offset="100%" style="stop-color:#0D0520"/>
  </linearGradient>
  <radialGradient id="pivotRim" cx="40%" cy="35%" r="65%">
    <stop offset="0%" style="stop-color:#3D2070"/>
    <stop offset="100%" style="stop-color:#150830"/>
  </radialGradient>
  <radialGradient id="pivotCore" cx="35%" cy="30%" r="65%">
    <stop offset="0%" style="stop-color:#A78BFA"/>
    <stop offset="60%" style="stop-color:#6D28D9"/>
    <stop offset="100%" style="stop-color:#3B1080"/>
  </radialGradient>
  <radialGradient id="pivotPin" cx="30%" cy="25%" r="65%">
    <stop offset="0%" style="stop-color:#F5F0FF"/>
    <stop offset="60%" style="stop-color:#C4B5FD"/>
    <stop offset="100%" style="stop-color:#8B5CF6"/>
  </radialGradient>
</defs>

<!-- BG -->
<rect width="400" height="400" rx="90" fill="url(#bg)"/>

<!-- Bezel -->
<circle cx="200" cy="200" r="168" fill="none" stroke="rgba(124,58,237,0.2)" stroke-width="2.5"/>
<circle cx="200" cy="200" r="164" fill="none" stroke="rgba(255,255,255,0.04)" stroke-width="1"/>

<!-- Ring -->
<circle cx="200" cy="200" r="158" fill="url(#ringGrad)"/>
<path d="M108 105 A120 120 0 0 1 298 72" fill="none" stroke="rgba(196,181,253,0.22)" stroke-width="3" stroke-linecap="round"/>
<circle cx="200" cy="200" r="148" fill="none" stroke="rgba(196,181,253,0.28)" stroke-width="1.5"/>
<circle cx="200" cy="200" r="142" fill="none" stroke="rgba(167,139,250,0.1)" stroke-width="1"/>
<circle cx="200" cy="200" r="136" fill="none" stroke="rgba(167,139,250,0.06)" stroke-width="0.5" stroke-dasharray="1.5 4"/>

<!-- Ticks -->
<g stroke="rgba(196,181,253,0.6)" stroke-width="3" stroke-linecap="round">
  <line x1="200" y1="52" x2="200" y2="70"/>
  <line x1="200" y1="330" x2="200" y2="348"/>
  <line x1="52" y1="200" x2="70" y2="200"/>
  <line x1="330" y1="200" x2="348" y2="200"/>
</g>
<g stroke="rgba(167,139,250,0.35)" stroke-width="2" stroke-linecap="round">
  <line x1="313" y1="87" x2="304" y2="100"/>
  <line x1="87" y1="87" x2="96" y2="100"/>
  <line x1="313" y1="313" x2="304" y2="300"/>
  <line x1="87" y1="313" x2="96" y2="300"/>
</g>
<g stroke="rgba(167,139,250,0.16)" stroke-width="1.2" stroke-linecap="round">
  <line x1="278" y1="56" x2="272" y2="68"/>
  <line x1="122" y1="56" x2="128" y2="68"/>
  <line x1="344" y1="122" x2="332" y2="128"/>
  <line x1="56" y1="122" x2="68" y2="128"/>
  <line x1="344" y1="278" x2="332" y2="272"/>
  <line x1="56" y1="278" x2="68" y2="272"/>
  <line x1="278" y1="344" x2="272" y2="332"/>
  <line x1="122" y1="344" x2="128" y2="332"/>
</g>
<g stroke="rgba(167,139,250,0.09)" stroke-width="0.8" stroke-linecap="round">
  <line x1="252" y1="53" x2="250" y2="62"/>
  <line x1="148" y1="53" x2="150" y2="62"/>
  <line x1="347" y1="148" x2="338" y2="150"/>
  <line x1="53" y1="148" x2="62" y2="150"/>
  <line x1="347" y1="252" x2="338" y2="250"/>
  <line x1="53" y1="252" x2="62" y2="250"/>
  <line x1="252" y1="347" x2="250" y2="338"/>
  <line x1="148" y1="347" x2="150" y2="338"/>
</g>
<g fill="rgba(196,181,253,0.42)">
  <polygon points="200,73 195,84 205,84"/>
  <polygon points="200,327 205,316 195,316"/>
  <polygon points="73,200 84,195 84,205"/>
  <polygon points="327,200 316,205 316,195"/>
  <polygon points="303,97 296,108 305,106"/>
  <polygon points="97,97 104,108 95,106"/>
  <polygon points="303,303 305,294 296,292"/>
  <polygon points="97,303 95,294 104,292"/>
</g>

<!-- Face -->
<circle cx="200" cy="200" r="130" fill="url(#faceGrad)"/>
<circle cx="200" cy="200" r="128" fill="none" stroke="rgba(124,58,237,0.12)" stroke-width="1"/>
<ellipse cx="162" cy="145" rx="52" ry="28" fill="rgba(196,181,253,0.04)" transform="rotate(-25,162,145)"/>

<!-- Letters -->
<text x="200" y="34" text-anchor="middle" fill="#DDD6FE" font-size="24" font-weight="800" font-family="-apple-system,system-ui">D</text>
<text x="374" y="207" text-anchor="middle" fill="#C4B5FD" font-size="24" font-weight="800" font-family="-apple-system,system-ui">M</text>
<text x="200" y="392" text-anchor="middle" fill="#A78BFA" font-size="24" font-weight="800" font-family="-apple-system,system-ui">C</text>
<text x="26" y="207" text-anchor="middle" fill="#8B5CF6" font-size="24" font-weight="800" font-family="-apple-system,system-ui">E</text>

<!-- NORTH -->
<path d="M200 75 L186 197 L200 205 Z" fill="url(#nL)"/>
<path d="M200 75 L214 197 L200 205 Z" fill="url(#nR)"/>
<line x1="197" y1="80" x2="188" y2="195" stroke="#F8F4FF" stroke-width="2.5" stroke-linecap="round" opacity="0.6"/>
<line x1="196" y1="95" x2="189" y2="194" stroke="rgba(248,244,255,0.18)" stroke-width="1" stroke-linecap="round"/>

<!-- SOUTH -->
<path d="M200 325 L214 203 L200 195 Z" fill="url(#sL)"/>
<path d="M200 325 L186 203 L200 195 Z" fill="url(#sR)"/>
<line x1="203" y1="319" x2="213" y2="205" stroke="rgba(139,92,246,0.45)" stroke-width="2" stroke-linecap="round"/>
<line x1="204" y1="305" x2="212" y2="206" stroke="rgba(139,92,246,0.15)" stroke-width="1" stroke-linecap="round"/>

<!-- EAST -->
<path d="M325 200 L203 186 L195 200 Z" fill="url(#eL)"/>
<path d="M325 200 L203 214 L195 200 Z" fill="url(#eR)"/>
<line x1="319" y1="197" x2="205" y2="188" stroke="rgba(240,234,255,0.5)" stroke-width="2.5" stroke-linecap="round"/>
<line x1="308" y1="197" x2="206" y2="189" stroke="rgba(240,234,255,0.15)" stroke-width="1" stroke-linecap="round"/>

<!-- WEST -->
<path d="M75 200 L197 214 L205 200 Z" fill="url(#wL)"/>
<path d="M75 200 L197 186 L205 200 Z" fill="url(#wR)"/>
<line x1="81" y1="198" x2="196" y2="188" stroke="rgba(167,139,250,0.45)" stroke-width="2" stroke-linecap="round"/>

<!-- NE -->
<path d="M258 142 L203 192 L200 205 L193 198 Z" fill="url(#diagL)" opacity="0.9"/>
<path d="M258 142 L207 198 L200 205 L203 192 Z" fill="url(#diagR)" opacity="0.9"/>
<line x1="254" y1="146" x2="205" y2="193" stroke="rgba(196,181,253,0.42)" stroke-width="1.8" stroke-linecap="round"/>

<!-- SW -->
<path d="M142 258 L197 208 L200 195 L207 202 Z" fill="url(#diagL)" opacity="0.9"/>
<path d="M142 258 L193 202 L200 195 L197 208 Z" fill="url(#diagR)" opacity="0.9"/>
<line x1="146" y1="254" x2="196" y2="207" stroke="rgba(109,40,217,0.4)" stroke-width="1.5" stroke-linecap="round"/>

<!-- NW -->
<path d="M142 142 L197 192 L205 200 L192 203 Z" fill="url(#diagL)" opacity="0.88"/>
<path d="M142 142 L192 197 L205 200 L197 192 Z" fill="url(#diagR)" opacity="0.88"/>
<line x1="146" y1="146" x2="195" y2="193" stroke="rgba(196,181,253,0.38)" stroke-width="1.8" stroke-linecap="round"/>

<!-- SE -->
<path d="M258 258 L203 208 L195 200 L202 193 Z" fill="url(#diagL)" opacity="0.88"/>
<path d="M258 258 L208 203 L195 200 L203 208 Z" fill="url(#diagR)" opacity="0.88"/>
<line x1="254" y1="254" x2="205" y2="207" stroke="rgba(109,40,217,0.35)" stroke-width="1.5" stroke-linecap="round"/>

<!-- Inner ring -->
<circle cx="200" cy="200" r="46" fill="none" stroke="rgba(167,139,250,0.22)" stroke-width="1.5"/>
<circle cx="200" cy="200" r="41" fill="none" stroke="rgba(167,139,250,0.1)" stroke-width="0.5" stroke-dasharray="2 4"/>

<!-- Inner cardinal points -->
<path d="M200 155 L196 197 L200 200 Z" fill="rgba(196,181,253,0.7)"/>
<path d="M200 155 L204 197 L200 200 Z" fill="rgba(76,29,149,0.7)"/>
<path d="M200 245 L204 203 L200 200 Z" fill="rgba(109,40,217,0.65)"/>
<path d="M200 245 L196 203 L200 200 Z" fill="rgba(30,10,78,0.65)"/>
<path d="M245 200 L203 196 L200 200 Z" fill="rgba(167,139,250,0.65)"/>
<path d="M245 200 L203 204 L200 200 Z" fill="rgba(59,7,100,0.65)"/>
<path d="M155 200 L197 204 L200 200 Z" fill="rgba(124,58,237,0.65)"/>
<path d="M155 200 L197 196 L200 200 Z" fill="rgba(20,8,50,0.6)"/>

<!-- Pivot -->
<circle cx="200" cy="200" r="23" fill="#080414"/>
<circle cx="200" cy="200" r="19" fill="url(#pivotRim)"/>
<circle cx="200" cy="200" r="14" fill="url(#pivotCore)"/>
<path d="M188 193 A14 14 0 0 1 212 193" fill="none" stroke="rgba(196,181,253,0.32)" stroke-width="1.5" stroke-linecap="round"/>
<circle cx="200" cy="200" r="7" fill="url(#pivotPin)"/>
<circle cx="196" cy="196" r="2.5" fill="rgba(255,255,255,0.55)"/>
</svg>
